<svg width="47" height="24" viewBox="0 0 47 24" fill="none" xmlns="http://www.w3.org/2000/svg">
<g clip-path="url(#clip0_888_980)">
<path d="M12.9105 20.5706C11.206 20.5706 9.67193 20.1934 8.3765 19.4392C7.04699 18.6849 5.99019 17.6906 5.24021 16.3877C4.49023 15.0849 4.11523 13.6106 4.11523 11.9649C4.11523 10.3192 4.49023 8.84488 5.24021 7.57631C5.99019 6.30773 7.04699 5.27916 8.3765 4.55916C9.70602 3.80488 11.206 3.42773 12.9105 3.42773C14.615 3.42773 16.1491 3.80488 17.4445 4.55916C18.7399 5.31345 19.8308 6.30773 20.5808 7.57631C21.3308 8.84488 21.7058 10.3192 21.7058 11.9649C21.7058 13.6106 21.3308 15.0506 20.5808 16.3534C19.8308 17.6563 18.774 18.6849 17.4445 19.4392C16.115 20.1934 14.615 20.5706 12.9105 20.5706ZM12.9105 18.8563C14.2059 18.8563 15.365 18.5477 16.3877 17.9649C17.4104 17.382 18.2286 16.5592 18.8081 15.5306C19.3876 14.502 19.6944 13.3363 19.6944 11.9992C19.6944 10.662 19.3876 9.53059 18.8081 8.50202C18.2286 7.47345 17.4104 6.68488 16.3877 6.06773C15.365 5.45059 14.2059 5.17631 12.9105 5.17631C11.6151 5.17631 10.456 5.48488 9.4333 6.06773C8.41059 6.68488 7.59243 7.50773 7.0129 8.50202C6.43336 9.53059 6.12655 10.6963 6.12655 11.9649C6.12655 13.2334 6.43336 14.4677 7.0129 15.5306C7.59243 16.5592 8.41059 17.382 9.4333 17.9649C10.456 18.5477 11.6151 18.822 12.9105 18.822V18.8563ZM9.12649 16.4906V7.16488H12.1605V16.4906H9.12649ZM13.5582 12.9934H11.3423V11.2792H13.1491C13.49 11.2792 13.7287 11.2106 13.8991 11.0392C14.0696 10.902 14.1718 10.6963 14.1718 10.422C14.1718 10.182 14.0696 9.97631 13.8991 9.80488C13.7287 9.63345 13.49 9.56488 13.1832 9.56488H11.3423V7.16488H13.3196C14.5127 7.16488 15.4673 7.43916 16.1491 8.02202C16.8309 8.57059 17.1377 9.32488 17.1377 10.2506C17.1377 11.1763 16.7968 11.8963 16.1491 12.342C15.5013 12.7877 14.615 13.0277 13.5241 13.0277L13.5582 12.9934ZM14.24 16.4906L13.8309 14.1934C13.7968 13.8506 13.6946 13.6106 13.5923 13.5077C13.4559 13.4049 13.2514 13.3706 12.9446 13.3706H11.8196V11.5877H13.4559C14.4446 11.5877 15.2286 11.7249 15.74 12.0334C16.2513 12.342 16.5922 12.822 16.7286 13.4734L17.4445 16.4563H14.24V16.4906Z" fill="#080808"/>
<path d="M24.8416 24H0.978516V0H24.8416V24ZM2.68302 22.2857H23.1371V1.71429H2.68302V22.2857Z" fill="#080808"/>
<path d="M46.1469 0.857422H23.9883V23.1431H46.1469V0.857422Z" fill="#080808"/>
<path d="M46.9998 24H23.1367V0H46.9998V24ZM24.8412 22.2857H45.2953V1.71429H24.8412V22.2857Z" fill="#080808"/>
</g>
<defs>
<clipPath id="clip0_888_980">
<rect width="46.0217" height="24" fill="white" transform="translate(0.978516)"/>
</clipPath>
</defs>
</svg>
