<svg width="34" height="50" viewBox="0 0 34 50" fill="none" xmlns="http://www.w3.org/2000/svg">
<g clip-path="url(#clip0_888_967)">
<path d="M17.6296 17.5H0V0H17.6296V17.5ZM1.25926 16.25H16.3704V1.25H1.25926V16.25Z" fill="#080808"/>
<path d="M17.6296 33.75H0V16.25H17.6296V33.75ZM1.25926 32.5H16.3704V17.5H1.25926V32.5Z" fill="#080808"/>
<path d="M34.0007 33.75H16.3711V16.25H34.0007V33.75ZM17.6304 32.5H32.7415V17.5H17.6304V32.5Z" fill="#080808"/>
<path d="M17.6296 50H0V32.5H17.6296V50ZM1.25926 48.75H16.3704V33.75H1.25926V48.75Z" fill="#080808"/>
<path d="M34.0007 50H16.3711V32.5H34.0007V50ZM17.6304 48.75H32.7415V33.75H17.6304V48.75Z" fill="#080808"/>
<path d="M9.8228 12.7492H7.7828V6.89922H6.29688V5.49922H6.87613C7.35465 5.49922 7.68206 5.44922 7.85836 5.32422C8.03465 5.19922 8.11021 5.02422 8.11021 4.79922V4.69922H9.79762V12.7242L9.8228 12.7492ZM6.29688 12.7492V11.2992H11.3087V12.7492H6.29688Z" fill="#080808"/>
<path d="M11.8872 23.4496C11.8872 23.8246 11.8116 24.1496 11.6605 24.4246C11.5094 24.6996 11.3079 24.9496 11.0561 25.1746C10.8042 25.3996 10.5272 25.5996 10.2249 25.7746C9.92272 25.9496 9.6205 26.1246 9.31828 26.2996C9.01606 26.4746 8.73902 26.6746 8.48717 26.8746C8.23532 27.0746 8.03383 27.2996 7.88272 27.5496C7.73161 27.7996 7.65606 28.0746 7.65606 28.3996L5.76717 28.6496C5.76717 28.1496 5.84272 27.6996 5.99383 27.3246C6.14495 26.9496 6.34643 26.6246 6.59828 26.3496C6.85013 26.0746 7.12717 25.8496 7.42939 25.6496C7.73161 25.4496 8.00865 25.2746 8.31087 25.0996C8.61309 24.9246 8.89013 24.7746 9.1168 24.6246C9.36865 24.4746 9.57013 24.2996 9.72124 24.0996C9.87235 23.9246 9.94791 23.6996 9.94791 23.4496C9.94791 23.1246 9.84717 22.8496 9.67087 22.6746C9.49457 22.4996 9.24272 22.3996 8.89013 22.3996C8.51235 22.3996 8.23532 22.4996 8.03383 22.6996C7.83235 22.8996 7.70643 23.1496 7.65606 23.4746H5.7168C5.79235 22.9246 5.96865 22.4746 6.24569 22.0746C6.52272 21.6746 6.87532 21.3746 7.32865 21.1746C7.78198 20.9746 8.31087 20.8496 8.89013 20.8496C9.54494 20.8496 10.0738 20.9746 10.5272 21.1996C10.9553 21.4246 11.3079 21.7496 11.5346 22.1246C11.7612 22.4996 11.862 22.9496 11.862 23.4246L11.8872 23.4496ZM5.79235 29.1246V28.6496L7.30346 27.6496H11.862V29.0996H5.76717L5.79235 29.1246Z" fill="#080808"/>
<path d="M12.1141 42.9504C12.1141 43.4004 11.9882 43.8254 11.7364 44.2004C11.4845 44.5754 11.1319 44.9004 10.6534 45.1254C10.1749 45.3504 9.57044 45.4754 8.86525 45.4754C8.26081 45.4754 7.70674 45.3754 7.22822 45.1504C6.7497 44.9254 6.37192 44.6254 6.0697 44.2254C5.76748 43.8254 5.59118 43.3504 5.51562 42.8004H7.45488C7.50525 43.1504 7.65637 43.4254 7.88303 43.6254C8.1097 43.8254 8.43711 43.9254 8.86525 43.9254C9.2934 43.9254 9.62081 43.8254 9.84748 43.6504C10.0741 43.4754 10.2001 43.2004 10.2001 42.8754C10.2001 42.7254 10.1749 42.6004 10.1245 42.4754C10.0741 42.3504 9.99859 42.2504 9.87266 42.1754C9.74674 42.0754 9.59562 42.0004 9.36896 41.9504C9.16748 41.9004 8.89044 41.8754 8.56303 41.8754H8.00896V40.5754C8.76451 40.5754 9.39414 40.6254 9.89785 40.7254C10.4267 40.8254 10.8549 41.0004 11.1823 41.2004C11.5097 41.4004 11.7616 41.6504 11.9127 41.9504C12.0638 42.2504 12.1393 42.5754 12.1393 42.9504H12.1141ZM11.9127 39.4754C11.9127 39.8504 11.8371 40.1504 11.686 40.4254C11.5349 40.7004 11.283 40.9004 10.9808 41.0754C10.6534 41.2504 10.2504 41.3504 9.77192 41.4254C9.26822 41.5004 8.68896 41.5254 8.00896 41.5254V40.4504H8.43711C8.76451 40.4504 9.04155 40.4254 9.24303 40.3504C9.44451 40.3004 9.59562 40.2254 9.69637 40.1254C9.79711 40.0254 9.87266 39.9254 9.92303 39.8254C9.94822 39.7254 9.9734 39.6004 9.9734 39.5004C9.9734 39.2254 9.87266 39.0004 9.67118 38.8254C9.4697 38.6504 9.21785 38.5754 8.86525 38.5754C8.48748 38.5754 8.18525 38.6754 7.98377 38.8754C7.78229 39.0754 7.65637 39.3254 7.58081 39.6504H5.64155C5.71711 39.1004 5.8934 38.6504 6.17044 38.2504C6.44748 37.8504 6.82525 37.5504 7.27859 37.3504C7.73192 37.1504 8.26081 37.0254 8.84007 37.0254C9.49488 37.0254 10.049 37.1254 10.5023 37.3504C10.9556 37.5754 11.283 37.8754 11.5097 38.2504C11.7364 38.6254 11.8623 39.0254 11.8623 39.4754H11.9127Z" fill="#080808"/>
<path d="M33.3704 0.625H17V16.875H33.3704V0.625Z" fill="#080808"/>
<path d="M34.0007 17.5H16.3711V0H34.0007V17.5ZM17.6304 16.25H32.7415V1.25H17.6304V16.25Z" fill="#080808"/>
</g>
<defs>
<clipPath id="clip0_888_967">
<rect width="34" height="50" fill="white"/>
</clipPath>
</defs>
</svg>
