<svg xmlns="http://www.w3.org/2000/svg" viewBox="0 0 48 32" width="48" height="32">
  <rect width="48" height="32" rx="4" fill="#1434CB"/>
  <path d="M19.5 19.8h-2.4l1.5-9.6h2.4l-1.5 9.6zm8.7-9.3c-.5-.2-1.2-.4-2.1-.4-2.3 0-3.9 1.2-3.9 3 0 1.3 1.2 2 2.1 2.4 1 .5 1.3.8 1.3 1.2 0 .6-.8.9-1.5.9-1 0-1.5-.1-2.3-.5l-.3-.2-.3 2c.6.3 1.6.5 2.7.5 2.4 0 4-1.2 4-3 0-1-.6-1.8-2-2.4-.8-.4-1.3-.7-1.3-1.1 0-.4.4-.7 1.3-.7.7 0 1.3.1 1.7.3l.2.1.3-1.9zm5.5-.3h-1.9c-.6 0-1 .2-1.3.8l-3.6 8.6h2.4l.5-1.3h3l.3 1.3h2.1l-1.5-9.4zm-2.6 6.1c.2-.5 1-2.8 1-2.8l.6 2.8h-1.6zm-12.6-6.1l-2.4 6.5-.3-1.2c-.4-1.4-1.8-2.9-3.4-3.7l2.2 8.4h2.4l3.6-9.6h-2.1z" fill="white"/>
  <path d="M11.2 10.2h-3.7l-.1.4c2.9.7 4.8 2.5 5.6 4.6l-.8-4.1c-.1-.4-.5-.8-1-.9z" fill="#F7B600"/>
</svg>
