<?xml version="1.0" standalone="no"?>
<!DOCTYPE svg PUBLIC "-//W3C//DTD SVG 1.1//EN" "http://www.w3.org/Graphics/SVG/1.1/DTD/svg11.dtd">
<svg xmlns="http://www.w3.org/2000/svg">
<metadata>Copyright (C) 2020 by original authors @ fontello.com</metadata>
<defs>
<font id="fontello" horiz-adv-x="1000" >
<font-face font-family="fontello" font-weight="400" font-stretch="normal" units-per-em="1000" ascent="850" descent="-150" />
<missing-glyph horiz-adv-x="1000" />
<glyph glyph-name="sas-elinstagram" unicode="&#xe800;" d="M895 850h-790a106 106 0 0 1-105-105v-790a106 106 0 0 1 105-105h790a106 106 0 0 1 105 105v790a106 106 0 0 1-105 105z m55-895a56 56 0 0 0-55-55h-790a56 56 0 0 0-55 55v790a56 56 0 0 0 55 55h790a56 56 0 0 0 55-55z m-155 651a32 32 0 1 0-32 32 32 32 0 0 0 32-32z m-295-468a212 212 0 1 0 212 212 212 212 0 0 0-212-212z m0 375a163 163 0 1 1 163-163 164 164 0 0 1-163 163z" horiz-adv-x="1000" />

<glyph glyph-name="sas-elteam" unicode="&#xe801;" d="M804 850a128 128 0 1 1 128-128 129 129 0 0 1-128 128z m0-206a78 78 0 1 0 77 78 78 78 0 0 0-77-78z m-295-51a128 128 0 1 1-129 129 129 129 0 0 1 129-129z m0 206a78 78 0 1 0-78-77 78 78 0 0 0 78 77z m381-232h-109a26 26 0 1 1 0-51h109a77 77 0 0 0 76-76v-163a77 77 0 0 0-50-72 26 26 0 0 1-17-24v-229a51 51 0 0 0-50-51h-116a26 26 0 1 1 0-51h116a102 102 0 0 1 101 101v214a128 128 0 0 1 67 112v163a127 127 0 0 1-127 127z m-439-716h115a102 102 0 0 1 102 101v213a128 128 0 0 1 67 112v163a128 128 0 0 1-128 127h-197a128 128 0 0 1-127-127v-163a128 128 0 0 1 66-112v-213a102 102 0 0 1 102-101z m-117 426v163a77 77 0 0 0 76 77h198a77 77 0 0 0 76-77v-163a77 77 0 0 0-50-71 26 26 0 0 1-17-24v-230a51 51 0 0 0-50-51h-116a51 51 0 0 0-50 51v230a26 26 0 0 1-17 24 77 77 0 0 0-50 71z m8 445a128 128 0 1 1-128-129 129 129 0 0 1 128 129z m-206 0a78 78 0 1 0 78-78 78 78 0 0 0-78 78z m32-871h116a26 26 0 0 1 0 51h-116a51 51 0 0 0-50 50v230a26 26 0 0 1-17 24 77 77 0 0 0-50 71v163a77 77 0 0 0 77 77h108a26 26 0 0 1 0 51h-109a128 128 0 0 1-127-128v-162a128 128 0 0 1 67-112v-214a102 102 0 0 1 101-101z" horiz-adv-x="1017" />

<glyph glyph-name="sas-elblogclassic" unicode="&#xe802;" d="M897 850h-791a106 106 0 0 1-106-106v-514a106 106 0 0 1 106-106h791a106 106 0 0 1 105 106v514a106 106 0 0 1-105 106z m55-620a56 56 0 0 0-55-56h-791a56 56 0 0 0-56 56v514a56 56 0 0 0 56 56h791a56 56 0 0 0 55-56z m-67-191h-767a28 28 0 0 1 0-55h767a28 28 0 0 1 0 55z m0-134h-767a28 28 0 0 1 0-55h767a28 28 0 0 1 0 55z" horiz-adv-x="1002" />

<glyph glyph-name="sas-elnavmenu" unicode="&#xe803;" d="M895 850l-789 0a105 105 0 0 1-106-105l0-789a106 106 0 0 1 105-106l789 0a106 106 0 0 1 106 105l0 789a106 106 0 0 1-105 106z m55-895a56 56 0 0 0-56-55l-789 0a56 56 0 0 0-55 56l0 789a56 56 0 0 0 56 55l789 0a56 56 0 0 0 55-55z m-246 556l-408 0a28 28 0 1 1 0-55l408 0a28 28 0 0 1 0 55z m0-133l-408 0a28 28 0 1 1 0-56l408 0a28 28 0 1 1 0 56z m0-134l-408 0a28 28 0 0 1 0-55l408 0a28 28 0 1 1 0 55z" horiz-adv-x="1000" />

<glyph glyph-name="sas-elpromobox" unicode="&#xe804;" d="M895 850h-790a106 106 0 0 1-105-105v-790a106 106 0 0 1 105-105h790a106 106 0 0 1 105 105v790a106 106 0 0 1-105 105z m55-895a56 56 0 0 0-55-55h-790a56 56 0 0 0-55 55v790a56 56 0 0 0 55 55h790a56 56 0 0 0 55-55z m-261 420h-164v164a25 25 0 1 1-50 0v-164h-164a25 25 0 1 1 0-50h164v-164a25 25 0 0 1 50 0v164h164a25 25 0 1 1 0 50z" horiz-adv-x="1000" />

<glyph glyph-name="sas-elbutton" unicode="&#xe805;" d="M937 222v498a130 130 0 0 1-130 130h-677a130 130 0 0 1-130-130v-498a130 130 0 0 1 130-130h84a26 26 0 1 1 0 51h-84a79 79 0 0 0-79 79v498a79 79 0 0 0 79 79h677a79 79 0 0 0 78-79v-498a79 79 0 0 0-78-79h-85a26 26 0 1 1 0-52h85a131 131 0 0 1 130 131z m-469-372a26 26 0 0 1 26 26v612l132-132a26 26 0 0 1 36 36l-176 176a26 26 0 0 1-18 7 26 26 0 0 1-18-7l-176-176a26 26 0 0 1 37-36l132 132v-612a26 26 0 0 1 25-26z" horiz-adv-x="937" />

<glyph glyph-name="sas-elcontactform" unicode="&#xe806;" d="M935 785a221 221 0 0 1-312 0l-572-572a29 29 0 0 1-8-16l-43-314a29 29 0 0 1 8-24 29 29 0 0 1 21-9 23 23 0 0 1 3 0l190 26a29 29 0 1 1-8 57l-152-21 30 220 231-231a29 29 0 0 1 20-9 28 28 0 0 1 20 9l572 572a220 220 0 0 1 0 312z m-301-70l96-96-522-522-96 96z m-291-753l-94 94 522 522 94-94z m562 563l-230 230a163 163 0 0 0 230-230z" horiz-adv-x="1000" />

<glyph glyph-name="sas-ellogo" unicode="&#xe807;" d="M1038 399l-493 441a13 13 0 0 1-2 2 29 29 0 0 1-40 1l-493-441a29 29 0 0 1 39-44l88 80v-515a73 73 0 0 1 74-73h155a69 69 0 0 1 69 69v261a11 11 0 0 0 11 11h157a11 11 0 0 0 10-11v-261a69 69 0 0 1 69-69h156c41 0 73 40 73 92v493l89-80a29 29 0 0 1 41 3 30 30 0 0 1-2 41z m-185-144v-313c0-21-11-33-16-33h-155a11 11 0 0 0-11 10v261a69 69 0 0 1-68 69h-158a69 69 0 0 1-68-69v-261a11 11 0 0 0-11-11h-156a15 15 0 0 0-15 15v567l328 292 330-295z" horiz-adv-x="1048" />

<glyph glyph-name="sas-elsearch" unicode="&#xe808;" d="M991-99l-243 243a425 425 0 0 1 105 280c0 235-192 426-427 426s-426-191-426-426 191-427 426-427a425 425 0 0 1 280 105l243-243a30 30 0 0 1 21-9 29 29 0 0 1 21 9 30 30 0 0 1 0 42z m-931 523c0 202 164 366 366 366s367-164 367-366-165-367-367-367-366 164-366 367z" horiz-adv-x="1000" />

<glyph glyph-name="sas-elsocialmedia" unicode="&#xe809;" d="M764 208a179 179 0 0 1-142-70l-275 153a179 179 0 0 1 10 59 176 176 0 0 1-10 59l275 154a179 179 0 1 1-37 108 175 175 0 0 1 10-59l-274-153a179 179 0 1 1 0-217l275-154a179 179 0 1 1 168 120z m0 586a123 123 0 1 0-123-123 123 123 0 0 0 123 123z m-585-566a123 123 0 1 0 123 122 123 123 0 0 0-123-122z m585-322a123 123 0 1 0 122 123 123 123 0 0 0-122-123z" horiz-adv-x="943" />

<glyph glyph-name="sas-elproducts" unicode="&#xe80a;" d="M800-14l-57 644a28 28 0 0 1-27 26h-118a198 198 0 0 1-395 0h-118a27 27 0 0 1-27-26l-58-644c0-1 0-2 0-3 0-73 67-133 150-133h500c83 0 150 60 150 133a10 10 0 0 1 0 3z m-400 809a143 143 0 0 0 143-139h-285a143 143 0 0 0 142 139z m250-890h-500c-52 0-94 35-95 77l55 618h93v-84a28 28 0 0 1 55 0v84h285v-84a28 28 0 0 1 55 0v84h92l55-618c-1-42-43-77-95-77z" horiz-adv-x="800" />

<glyph glyph-name="sas-elcart" unicode="&#xe80b;" d="M265 192h551a114 114 0 0 1 113 113v234l0 0v0s0 0 0 0a3 3 0 0 0 0 2s0 0 0 0l0 0 0 0s0 0 0 0l0 0 0 0 0 0 0 0 0 0s0 0 0 0l0 0 0 0 0 0 0 0 0 0s0 0 0 0l-2 0 0 0 0 0h-5l-715 120v97a7 7 0 0 1 0 3v0s0 0 0 2l0 0s0 0 0 0l0 0s0 0 0 0 0 0 0 0l0 0 0 0s0 0 0 0 0 0 0 0l0 0-8 15 0 0 0 0 0 0s0 0 0 0l0 0s0 0 0 0l-3 0-157 70a28 28 0 1 1-22-51l135-57v-609a113 113 0 0 1 99-112 114 114 0 0 1-16-58 112 112 0 0 1 224 0 108 108 0 0 1-16 57h250a109 109 0 0 1-15-57 112 112 0 1 1 112 112h-525a58 58 0 0 0-58 58v76a114 114 0 0 1 58-15z m137-230a57 57 0 1 0-56 57 57 57 0 0 0 56-57z m443 0a57 57 0 1 0-57 57 57 57 0 0 0 57-57z m-32 285h-548a58 58 0 0 0-58 58v300l667-92v-208a58 58 0 0 0-58-58z m0 0" horiz-adv-x="929" />

<glyph glyph-name="sasground-widgetlogo" unicode="&#xe80c;" d="M500 850a500 500 0 1 1 500-500 500 500 0 0 1-500 500z m-124-696a44 44 0 0 0-43-43h-9a43 43 0 0 0-44 43v393a43 43 0 0 0 44 42h9a44 44 0 0 0 43-43z m172 0a44 44 0 0 0-43-43h-10a44 44 0 0 0-43 43v393a44 44 0 0 0 43 43h10a44 44 0 0 0 43-43z m172 0a43 43 0 0 0-44-43h-9a44 44 0 0 0-43 43v393a44 44 0 0 0 43 43h9a43 43 0 0 0 44-43z" horiz-adv-x="1000" />

<glyph glyph-name="sas-elbloggrid" unicode="&#xe80d;" d="M288 784a66 66 0 0 1-65 66h-157a66 66 0 0 1-66-66v-156a66 66 0 0 1 66-66h156a66 66 0 0 1 66 66v156z m-50-156a15 15 0 0 0-15-16h-157a15 15 0 0 0-16 16v156a15 15 0 0 0 16 16h157a15 15 0 0 0 15-16v-156z m50-200a66 66 0 0 1-65 66h-157a66 66 0 0 1-66-66v-156a66 66 0 0 1 66-66h156a66 66 0 0 1 66 66v156z m-50-156a15 15 0 0 0-15-16h-157a15 15 0 0 0-16 16v156a15 15 0 0 0 16 16h157a15 15 0 0 0 15-16v-156z m-15-134h-157a66 66 0 0 1-66-65v-157a66 66 0 0 1 66-66h156a66 66 0 0 1 66 66v157a66 66 0 0 1-65 65z m15-222a15 15 0 0 0-15-16h-157a15 15 0 0 0-16 16v156a15 15 0 0 0 16 16h157a15 15 0 0 0 15-16v-156z m118 356a66 66 0 0 1 66-66h156a66 66 0 0 1 66 66v156a66 66 0 0 1-66 66h-156a66 66 0 0 1-66-66z m50 156a15 15 0 0 0 16 16h156a15 15 0 0 0 16-16v-156a15 15 0 0 0-16-16h-156a15 15 0 0 0-16 16z m-50-512a66 66 0 0 1 66-66h156a66 66 0 0 1 66 66v156a66 66 0 0 1-66 66h-156a66 66 0 0 1-66-66z m50 156a15 15 0 0 0 16 16h156a15 15 0 0 0 16-16v-156a15 15 0 0 0-16-16h-156a15 15 0 0 0-16 16z m306 200a66 66 0 0 1 66-66h156a66 66 0 0 1 66 66v156a66 66 0 0 1-66 66h-156a66 66 0 0 1-66-66z m50 156a15 15 0 0 0 16 16h156a15 15 0 0 0 16-16v-156a15 15 0 0 0-16-16h-156a15 15 0 0 0-16 16z m-50-512a66 66 0 0 1 66-66h156a66 66 0 0 1 66 66v156a66 66 0 0 1-66 66h-156a66 66 0 0 1-66-66z m50 156a15 15 0 0 0 16 16h156a15 15 0 0 0 16-16v-156a15 15 0 0 0-16-16h-156a15 15 0 0 0-16 16z m-406 712v-156a66 66 0 0 1 66-66h156a66 66 0 0 1 66 66v156a66 66 0 0 1-66 66h-156a66 66 0 0 1-66-66z m50 0a15 15 0 0 0 16 16h156a15 15 0 0 0 16-16v-156a15 15 0 0 0-16-16h-156a15 15 0 0 0-16 16z m372-222h156a66 66 0 0 1 66 66v156a66 66 0 0 1-66 66h-157a66 66 0 0 1-65-66v-156a66 66 0 0 1 65-66z m-16 222a15 15 0 0 0 16 16h156a15 15 0 0 0 16-16v-156a15 15 0 0 0-16-16h-156a15 15 0 0 0-16 16z" horiz-adv-x="1000" />

<glyph glyph-name="sas-elbloglist" unicode="&#xe80e;" d="M66 562h156a66 66 0 0 1 66 66v156a66 66 0 0 1-66 66h-156a66 66 0 0 1-66-66v-156a66 66 0 0 1 66-66z m-16 222a16 16 0 0 0 16 16h156a16 16 0 0 0 16-16v-156a16 16 0 0 0-16-16h-156a16 16 0 0 0-16 16z m-50-512a66 66 0 0 1 66-66h156a66 66 0 0 1 66 66v156a66 66 0 0 1-66 66h-156a66 66 0 0 1-66-66z m50 156a16 16 0 0 0 16 16h156a16 16 0 0 0 16-15v-157a16 16 0 0 0-16-16h-156a16 16 0 0 0-16 16z m-50-512a66 66 0 0 1 66-66h156a66 66 0 0 1 66 66v156a66 66 0 0 1-66 66h-156a66 66 0 0 1-66-66z m50 156a16 16 0 0 0 16 16h156a16 16 0 0 0 16-16v-156a16 16 0 0 0-16-16h-156a16 16 0 0 0-16 16z m926 714h-563a25 25 0 0 1 0-51h563a25 25 0 0 1 0 51z m0-109h-563a25 25 0 0 1 0-51h563a25 25 0 0 1 0 51z m0-247h-563a25 25 0 0 1 0-51h563a25 25 0 0 1 0 51z m0-110h-563a25 25 0 0 1 0-50h563a25 25 0 0 1 0 50z m0-247h-563a25 25 0 0 1 0-50h563a25 25 0 0 1 0 50z m25-134a25 25 0 0 1-25 25h-563a25 25 0 1 1 0-50h563a25 25 0 0 1 25 25z" horiz-adv-x="1001" />

<glyph glyph-name="sas-eltestimonial" unicode="&#xe80f;" d="M61 354l25 25 59 59a25 25 0 0 1-35 36l-103-103a25 25 0 0 1 0-35l103-103a25 25 0 1 1 35 36z m830-1l-24-24-60-60a25 25 0 0 1 36-36l102 103a25 25 0 0 1 0 35l-102 103a25 25 0 1 1-36-36z m-543 369a128 128 0 1 1 128 128 128 128 0 0 1-128-128z m128 78a78 78 0 1 0-78-78 78 78 0 0 0 78 78z m-73-233a127 127 0 0 1-127-127v-163a127 127 0 0 1 67-112v-214a101 101 0 0 1 101-101h64a101 101 0 0 1 102 101v214a127 127 0 0 1 67 112v163a127 127 0 0 1-127 127h-147z m224-127v-163a77 77 0 0 0-51-72 25 25 0 0 1-16-23v-231a51 51 0 0 0-51-51h-65a51 51 0 0 0-51 51v230a25 25 0 0 1-16 24 77 77 0 0 0-51 72v163a77 77 0 0 0 77 77h147a77 77 0 0 0 77-77z" horiz-adv-x="952" />

<glyph glyph-name="sas-elcircletext" unicode="&#xe810;" d="M465 161a32 32 0 0 1 10-2 29 29 0 0 1 28 19l36 101h139a19 19 0 0 1 4 1l36-101a30 30 0 0 1 28-20 32 32 0 0 1 10 2 30 30 0 0 1 18 38l-135 378a14 14 0 0 1-2 3l0 1-1 1a10 10 0 0 0-1 2c0 0 0 1 0 1a6 6 0 0 1-2 1c0 0 0 1 0 1s-1 1-2 1l-1 1c0 0 0 1-1 1s0 1-1 1-1 1-1 1-1 1-1 1l-1 0-2 1a14 14 0 0 1-2 1h-1l-2 1c-1 0-1 0-2 0s-1 0-1 0a3 3 0 0 0-2 1c0 0-1 0-1 0h-3a4 4 0 0 1-2 0 3 3 0 0 1-1-1 5 5 0 0 1-2 0c0 0 0 0-1 0-1 0-2-1-2-1h0a14 14 0 0 1-3-1l-2-1-1 0a10 10 0 0 0-1-1c-1 0-1-1-1-1s-1-1-2-1 0 0-1-1l-2-2c0 0 0-1-1-1s0-1-1-1 0-1 0-1-1-1-1-2l-1-1-1-1a14 14 0 0 1-1-3l-135-378a31 31 0 0 1 18-38z m146 318l50-140h-101z m243 241c181-118 245-351 159-542l-38 123a30 30 0 0 1-58-16l0-1 58-190a30 30 0 0 1 37-21l3 1 188 58a30 30 0 1 1-18 57l-117-36a494 494 0 0 1-182 617 495 495 0 0 1-505 20 30 30 0 0 1-15-34 26 26 0 0 1 3-7 30 30 0 0 1 41-12 434 434 0 0 0 444-17z m-13-810a30 30 0 0 1-28 53 434 434 0 0 0-601 564l45-124a30 30 0 1 1 56 21l-68 187a30 30 0 0 1-38 18l-187-68a30 30 0 0 1-19-36 11 11 0 0 1 1-3 30 30 0 0 1 39-18l113 42a491 491 0 0 1-32-304c2-9 4-17 6-25a494 494 0 0 1 713-307z" horiz-adv-x="1224" />

<glyph glyph-name="sas-eltextscrolling" unicode="&#xe811;" d="M546 242a29 29 0 0 1 9-1 27 27 0 0 1 26 18l34 94h129a18 18 0 0 1 3 0l34-94a28 28 0 0 1 26-18 30 30 0 0 1 9 1 28 28 0 0 1 17 35l-126 353a13 13 0 0 1-1 2l-1 2 0 1a6 6 0 0 0-1 1c0 1 0 1-1 1a5 5 0 0 1-1 1c0 1 0 1-1 1s0 1-1 1l-1 1c0 1 0 1 0 1s-1 1-2 1 0 1-1 1 0 0-1 1l-1 0-1 1a14 14 0 0 1-3 1h0l-3 1c0 0 0 0-1 0s-1 0-1 0a3 3 0 0 0-2 0c0 0-1 1-1 1h-3a3 3 0 0 1-1-1 3 3 0 0 1-1 0 4 4 0 0 1-2 0c0 0-1 0-1 0-1-1-2-1-2-1h0a13 13 0 0 1-3-1l-1-1-1 0a9 9 0 0 0-2-1c0 0-1-1-1-1s-1 0-1-1a4 4 0 0 1-1-1l-2-2c0 0 0 0-1-1s0 0-1-1 0 0 0-1-1 0-1-1l-1-1 0-1a11 11 0 0 1-1-3l-127-352a29 29 0 0 1 18-36z m135 297l47-131h-94z m-480-297a29 29 0 0 1 9-1 27 27 0 0 1 26 18l34 94h129a18 18 0 0 1 3 0l34-94a28 28 0 0 1 26-18 30 30 0 0 1 9 1 28 28 0 0 1 17 35l-126 353a13 13 0 0 1-1 2l0 2-1 1a6 6 0 0 0-1 1c0 1 0 1-1 1a5 5 0 0 1-1 1c0 1 0 1 0 1s-1 1-1 1l-2 1c0 1 0 1 0 1s-1 1-2 1 0 1 0 1-1 0-2 1l-1 0-1 1a14 14 0 0 1-3 1h0l-2 1c-1 0-1 0-2 0s-1 0-1 0a3 3 0 0 0-1 0c-1 0-1 1-2 1h-3a3 3 0 0 1-1-1 3 3 0 0 1-1 0 4 4 0 0 1-2 0c0 0 0 0-1 0-1-1-2-1-2-1h0a13 13 0 0 1-3-1l-1-1-1 0a9 9 0 0 0-2-1c0 0 0-1-1-1s0 0-1-1a4 4 0 0 1-1-1l-2-2c0 0 0 0-1-1s0 0-1-1 0 0 0-1-1 0-1-1l-1-1 0-1a11 11 0 0 1-1-3l-126-352a29 29 0 0 1 17-36z m135 297l47-131h-94z m-224 311l793 0a112 112 0 0 0 111-112l0-648a112 112 0 0 0-111-112l-153 0a26 26 0 1 0 0 52l153 0a61 61 0 0 1 61 60l0 648a61 61 0 0 1-61 61l-793 0a61 61 0 0 1-61-60l0-649a61 61 0 0 1 61-60l438 0-85 85a25 25 0 0 0 36 36l129-129a25 25 0 0 0 0-36l-129-129a25 25 0 0 0-36 36l86 85-439 1a112 112 0 0 0-112 111l0 649a112 112 0 0 0 112 111z" horiz-adv-x="1017" />

<glyph glyph-name="sas-elopenstreet" unicode="&#xe812;" d="M404 651a209 209 0 1 1 209-210 209 209 0 0 1-209 210z m0-368a159 159 0 1 0 159 158 159 159 0 0 0-159-158z m0 567c-5 0-10 0-14 0-202-7-369-164-388-365a407 407 0 0 1 5-115 123 123 0 0 1 3-13 386 386 0 0 1 27-79c42-99 133-251 330-415a58 58 0 0 1 74 0c198 164 289 316 330 414a397 397 0 0 1 27 79 129 129 0 0 1 3 13 401 401 0 0 1 7 77c0 223-181 404-404 404z m347-472c0 0 0-4-2-10a368 368 0 0 0-24-71c-39-93-126-238-316-395a8 8 0 0 0-5-2 9 9 0 0 0-5 2c-190 158-277 302-316 396a351 351 0 0 0-24 70c-1 5-2 9-2 10 0 0 0 0 0 1a361 361 0 0 0-5 102c17 175 163 313 339 319 201 7 367-155 367-354a367 367 0 0 0-7-68z" horiz-adv-x="808" />

<glyph glyph-name="skype" unicode="&#xe813;" d="M2 609q12 89 75 153 68 65 160 74t170-37q111 18 219-17t185-112q133-138 135-324 0-51-10-99 27-57 27-120-4-111-78-187-84-78-189-78-69 0-125 31-139-23-264 29-172 76-246 244-53 141-25 272-45 82-34 171z m211-394q4-49 35-89t71-61q166-69 308-10 57 24 91 70t34 104q2 105-105 154-47 20-90 32-15 3-56 12t-63 15q-25 8-49 24t-23 38q4 36 37 49t72 16q74 2 117-71 16-25 30-37t37-11q27 2 47 20t19 44q-4 53-42 88t-93 53q-134 33-242-8-55-20-87-62t-34-92q2-45 23-79t58-55 70-31 78-21q54-12 86-21 66-24 66-71 0-35-35-58-92-45-158-12-41 20-67 76-23 53-66 55-28-2-47-20t-22-41z" horiz-adv-x="963" />

<glyph glyph-name="sas-elportfolio" unicode="&#xe814;" d="M288 784a66 66 0 0 1-66 66h-156a66 66 0 0 1-66-66v-156a66 66 0 0 1 66-66h156a66 66 0 0 1 66 66v156z m-50-156a15 15 0 0 0-16-16h-156a15 15 0 0 0-16 16v156a15 15 0 0 0 16 16h156a15 15 0 0 0 16-16v-156z m50-199a66 66 0 0 1-66 65h-156a66 66 0 0 1-66-65v-513a66 66 0 0 1 66-66h156a66 66 0 0 1 66 66v513z m-50-513a15 15 0 0 0-16-16h-156a15 15 0 0 0-16 16v513a15 15 0 0 0 16 15h156a15 15 0 0 0 16-15v-513z m118 1a66 66 0 0 1 65-66h157a66 66 0 0 1 66 66v156a66 66 0 0 1-66 66h-157a66 66 0 0 1-65-66z m50 156a15 15 0 0 0 15 16h157a15 15 0 0 0 15-16v-156a15 15 0 0 0-15-16h-157a15 15 0 0 0-15 16z m305-157a66 66 0 0 1 66-66h156a66 66 0 0 1 66 66v513a66 66 0 0 1-66 65h-156a66 66 0 0 1-66-65z m50 513a15 15 0 0 0 16 15h156a15 15 0 0 0 16-15v-513a15 15 0 0 0-16-16h-156a15 15 0 0 0-16 16z m-405 355v-513a66 66 0 0 1 65-65h157a66 66 0 0 1 66 65v513a66 66 0 0 1-66 66h-157a66 66 0 0 1-65-66z m50 0a15 15 0 0 0 15 16h157a15 15 0 0 0 15-16v-513a15 15 0 0 0-15-15h-157a15 15 0 0 0-15 15z m371-222h156a66 66 0 0 1 66 66v156a66 66 0 0 1-66 66h-156a66 66 0 0 1-66-66v-156a66 66 0 0 1 66-66z m-16 222a15 15 0 0 0 16 16h156a15 15 0 0 0 16-16v-156a15 15 0 0 0-16-16h-156a15 15 0 0 0-16 16z" horiz-adv-x="999" />

<glyph glyph-name="sas-elfancyheading" unicode="&#xe815;" d="M895 850h-790a106 106 0 0 1-105-105v-790a106 106 0 0 1 105-105h790a106 106 0 0 1 105 105v790a106 106 0 0 1-105 105z m55-895a56 56 0 0 0-55-55h-790a56 56 0 0 0-55 55v790a56 56 0 0 0 55 55h790a56 56 0 0 0 55-55z m-426 664c-1 1-1 1-1 1l-1 3c-1 1-1 1-1 2s-1 1-2 2-1 1-1 2a10 10 0 0 1-2 1c-1 1-1 1-2 2a8 8 0 0 1-2 1c-1 0-2 1-2 1-1 0-1 0-1 0a2 2 0 0 1-1 1 14 14 0 0 1-3 0c-1 0-2 0-2 1s-2 0-3 0a10 10 0 0 1-3 0 9 9 0 0 1-2-1c-1 0-2 0-2 0a2 2 0 0 0-1-1c-1 0-1 0-1 0l-3-1a8 8 0 0 0-2-1 8 8 0 0 1-2-2 12 12 0 0 1-1-1 13 13 0 0 1-2-2 11 11 0 0 1-1-2 18 18 0 0 1-2-2l-1-3c0 0 0 0 0-1l-187-522a25 25 0 1 1 47-16l53 149h217c1 0 2 0 2 0l54-149a25 25 0 0 1 23-17 23 23 0 0 1 9 1 25 25 0 0 1 15 32z m-116-339l92 257 92-257z" horiz-adv-x="1000" />

<glyph glyph-name="sas-postslider" unicode="&#xe816;" d="M838 9h-69a25 25 0 1 1 0-51h69a105 105 0 0 1 104 105v574a105 105 0 0 1-104 104h-476l66 66a25 25 0 0 1-35 36l-109-109a25 25 0 0 1-7-18 25 25 0 0 1 7-18l109-108a25 25 0 1 1 35 35l-66 66h476a54 54 0 0 0 54-54v-574a55 55 0 0 0-54-54z m-289 101a25 25 0 0 1-35-35l66-66h-476a54 54 0 0 0-54 54v574a54 54 0 0 0 54 54h70a25 25 0 1 1 0 51h-70a105 105 0 0 1-104-105v-574a105 105 0 0 1 104-104h476l-66-66a25 25 0 0 1 36-36l108 109a25 25 0 0 1 8 18 25 25 0 0 1-8 18z m-46 240a32 32 0 1 0-32 32 32 32 0 0 0 32-32z m-137 0a32 32 0 1 0-33 32 32 32 0 0 0 33-32z m275 0a32 32 0 1 0-32 32 32 32 0 0 0 32-32z" horiz-adv-x="942" />

<glyph glyph-name="sas-portfolioslider" unicode="&#xe817;" d="M838 9h-69a25 25 0 1 1 0-51h69a105 105 0 0 1 104 105v574a105 105 0 0 1-104 104h-476l66 66a25 25 0 0 1-35 36l-109-109a25 25 0 0 1-7-18 25 25 0 0 1 7-18l109-108a25 25 0 1 1 35 35l-66 66h476a54 54 0 0 0 54-54v-574a55 55 0 0 0-54-54z m-289 101a25 25 0 0 1-35-35l66-66h-476a54 54 0 0 0-54 54v574a54 54 0 0 0 54 54h70a25 25 0 1 1 0 51h-70a105 105 0 0 1-104-105v-574a105 105 0 0 1 104-104h476l-66-66a25 25 0 0 1 36-36l108 109a25 25 0 0 1 8 18 25 25 0 0 1-8 18z m-46 240a32 32 0 1 0-32 32 32 32 0 0 0 32-32z m-137 0a32 32 0 1 0-33 32 32 32 0 0 0 33-32z m275 0a32 32 0 1 0-32 32 32 32 0 0 0 32-32z" horiz-adv-x="942" />

<glyph glyph-name="sas-elpostdata" unicode="&#xe818;" d="M132-119h739c71 0 129 58 129 129v347c0 71-58 128-129 128h-739c-72 0-129-57-129-128v-347c0-71 57-129 129-129z m-68 476c0 37 30 67 68 67h739c37 0 67-30 67-67v-347c0-38-30-68-67-68h-739c-38 0-68 30-68 68v347z m-30 232h935c18 0 33 15 33 34 0 18-15 33-33 33l0 0h-935c-19 0-34-15-34-33 0-19 15-34 34-34z m0 163h935c18 0 33 15 33 33 0 19-15 34-33 34l0 0h-935c-19 0-34-15-34-34 0-18 15-33 34-33z" horiz-adv-x="1002" />

<glyph glyph-name="sas-elpostmeta" unicode="&#xe819;" d="M871 794h-739c-72 0-129-58-129-129v-347c0-71 57-129 129-129h739c71 0 129 58 129 129v347c0 71-58 129-129 129z m67-476c0-37-30-67-67-67h-739c-38 0-68 30-68 67v347c0 37 30 67 68 67h739c37 0 67-30 67-67v-347z m-780-402c-57 0-104 47-104 104s47 104 104 104 103-47 103-104-46-104-103-104z m0 157c-29 0-53-24-53-53s24-52 53-52 52 23 52 52-24 53-52 53z m230-157c-58 0-104 47-104 104s46 104 104 104 103-47 103-104-46-104-103-104z m0 157c-29 0-53-24-53-53s24-52 53-52 52 23 52 52-24 53-52 53z m229-157c-57 0-103 47-103 104s46 104 103 104 104-47 104-104-47-104-104-104z m0 157c-28 0-52-24-52-53s24-52 52-52 53 23 53 52-24 53-53 53z m230-157c-57 0-103 47-103 104s46 104 103 104 104-47 104-104-47-104-104-104z m0 157c-29 0-52-24-52-53s23-52 52-52 53 23 53 52-24 53-53 53z" horiz-adv-x="1002" />

<glyph glyph-name="sas-eluser" unicode="&#xe81a;" d="M422 311h6c61 1 110 23 146 63 80 90 67 244 65 259-5 110-57 163-100 188-32 18-70 28-111 29h-4c-23 0-68-4-111-28s-97-78-102-189c-2-15-15-169 65-259 36-40 85-62 146-63z m-156 317c0 0 0 1 0 2 7 148 113 164 158 164h2c56-1 151-24 158-164a4 4 0 0 1 0-2c0-2 15-143-51-217-26-29-61-44-107-44h-2c-45 1-80 15-106 44-66 74-52 216-52 217z m585-572v0c0 2-1 4-1 5-1 41-4 137-93 168l-2 1c-94 23-172 77-172 78a28 28 0 0 1-32-46c3-2 85-60 188-86 49-17 54-69 56-116a42 42 0 0 1 0-5c0-19-1-48-5-64-33-19-165-85-365-85-199 0-331 66-365 85-3 16-5 45-4 64 0 2 0 3 0 5 1 47 7 99 55 116 103 27 186 84 189 86a28 28 0 1 1-32 46c-1-1-78-54-172-78-1 0-1-1-2-1-90-31-92-127-94-167a42 42 0 0 0 0-5v-1c0-11 0-66 11-94a27 27 0 0 1 10-13c7-4 156-99 405-99s398 95 404 99a28 28 0 0 1 11 13c10 28 10 83 10 94z" horiz-adv-x="851" />
</font>
</defs>
</svg>
